HIERARCHY
ROOT hip
{
	OFFSET 0.000000 0.000000 0.000000 
	CHANNELS 6 Xposition Yposition Zposition Xrotation Zrotation Yrotation
	JOINT abdomen
	{
		OFFSET 0.000000 3.402643 0.000000 
		CHANNELS 3 Xrotation Zrotation Yrotation
		JOINT chest
		{
			OFFSET 0.000000 8.438565 -0.680529 
			CHANNELS 3 Xrotation Zrotation Yrotation
			JOINT neck
			{
				OFFSET 0.000000 10.207942 -0.272212 
				CHANNELS 3 Xrotation Zrotation Yrotation
				JOINT head
				{
					OFFSET 0.000000 3.130431 0.000000 
					CHANNELS 3 Xrotation Zrotation Yrotation
					End Site
					{
						OFFSET 0.000000 3.130435 0.000000 
					}
				}
			}
			JOINT lCollar
			{
				OFFSET 3.470700 6.669187 -0.816635 
				CHANNELS 3 Yrotation Zrotation Xrotation
				JOINT lShldr
				{
					OFFSET 3.198488 0.000000 0.000000 
					CHANNELS 3 Zrotation Yrotation Xrotation
					JOINT lForeArm
					{
						OFFSET 10.139888 0.000000 0.000000 
						CHANNELS 3 Yrotation Zrotation Xrotation
						JOINT lHand
						{
							OFFSET 8.370511 0.000000 0.000000 
							CHANNELS 3 Zrotation Yrotation Xrotation
							End Site
							{
								OFFSET 4.083176 0.000000 0.000000 
							}
						}
					}
				}
			}
			JOINT rCollar
			{
				OFFSET -3.470700 6.669187 -0.816635 
				CHANNELS 3 Yrotation Zrotation Xrotation
				JOINT rShldr
				{
					OFFSET -3.198488 0.000000 0.000000 
					CHANNELS 3 Zrotation Yrotation Xrotation
					JOINT rForeArm
					{
						OFFSET -10.139888 0.000000 0.000000 
						CHANNELS 3 Yrotation Zrotation Xrotation
						JOINT rHand
						{
							OFFSET -8.370511 0.000000 0.000000 
							CHANNELS 3 Zrotation Yrotation Xrotation
							End Site
							{
								OFFSET -4.083176 0.000000 0.000000 
							}
						}
					}
				}
			}
		}
	}
	JOINT lThigh
	{
		OFFSET 5.308129 -1.633274 1.361059 
		CHANNELS 3 Xrotation Zrotation Yrotation
		JOINT lShin
		{
			OFFSET -2.041588 -20.007561 0.000000 
			CHANNELS 3 Xrotation Zrotation Yrotation
			JOINT lFoot
			{
				OFFSET 0.000000 -19.190928 -1.224953 
				CHANNELS 3 Xrotation Yrotation Zrotation
				End Site
				{
					OFFSET 0.000000 -2.449906 4.627600 
				}
			}
		}
	}
	JOINT rThigh
	{
		OFFSET -5.308129 -1.633274 1.361059 
		CHANNELS 3 Xrotation Zrotation Yrotation
		JOINT rShin
		{
			OFFSET 2.041588 -20.007561 0.000000 
			CHANNELS 3 Xrotation Zrotation Yrotation
			JOINT rFoot
			{
				OFFSET 0.000000 -19.190928 -1.224953 
				CHANNELS 3 Xrotation Yrotation Zrotation
				End Site
				{
					OFFSET 0.000000 -2.449906 4.627600 
				}
			}
		}
	}
}
MOTION
Frames: 11
Frame Time: 0.033333
-0.175318 52.577332 -0.462632 1.406250 -0.175781 -11.103545 27.082706 -9.520782 -4.889122 -23.300781 9.794923 6.935256 51.063168 8.107644 2.471410 -35.478516 -5.185546 -8.457032 2.000000 -2.000000 0.000000 -91.982422 5.205078 -8.378905 -44.075909 -2.104447 -1.751158 -15.889779 51.667801 -17.941149 -2.000000 2.000000 0.000000 83.134766 -0.625000 -47.949326 102.157181 -1.121626 -3.132142 14.430477 -59.174732 -26.079420 7.848700 12.107760 18.711515 5.769399 -4.836299 -0.667879 -3.269930 0.439716 -8.739347 2.743792 -10.565806 -18.944771 9.305546 4.703247 0.621856 -0.856453 -1.967332 7.722903 
-0.332507 52.600967 -0.948485 1.572266 -0.361328 -11.640687 28.014269 -9.484550 -5.290967 -22.958984 9.433595 6.778945 51.063168 8.107644 2.471410 -34.765625 -5.048828 -9.003907 2.000000 -2.000000 0.000000 -91.044922 2.851563 -8.104981 -44.074718 -1.915796 -1.703520 -19.109402 50.657879 -22.117128 -2.000000 2.000000 0.000000 82.080078 -1.777344 -46.318359 103.758308 -1.015511 -3.106449 11.410233 -61.393852 -23.553576 7.122113 12.308166 19.221079 6.114406 -4.829331 -0.715361 -3.134166 0.535112 -9.097749 2.039363 -10.182722 -18.344124 9.811664 5.102790 0.854733 -1.222551 -2.270606 7.324287 
-0.506462 52.648251 -1.455236 1.572266 -0.361328 -12.168031 28.977030 -9.377874 -5.853970 -22.617188 9.072267 6.621094 51.063168 8.107644 2.471410 -34.199223 -4.755859 -9.482423 2.000000 -2.000000 0.000000 -89.990234 0.126953 -7.548831 -44.251144 -1.985749 -1.728765 -21.592525 49.298119 -25.448280 -2.000000 2.000000 0.000000 81.044922 -3.457031 -44.931644 105.671547 -1.260371 -3.101053 8.128950 -62.935871 -20.894642 6.460542 12.817924 19.721302 6.464953 -4.838575 -0.724404 -3.285741 0.706244 -9.189754 1.092369 -9.978057 -17.550447 10.173990 5.103451 0.865230 -1.217117 -2.251501 7.321380 
-0.671568 52.671879 -1.974262 1.757813 -0.537109 -12.695404 29.822811 -7.874106 -5.629282 -22.275391 8.701173 6.455078 51.063168 8.107644 2.471410 -33.486328 -4.472656 -9.961699 2.000000 -2.000000 0.000000 -88.759766 -2.626953 -6.084432 -44.427734 -2.105017 -1.760904 -22.893557 48.001404 -28.178885 -2.000000 2.000000 0.000000 80.009766 -5.166016 -44.531250 108.142334 -1.182376 -3.096543 6.224645 -64.832291 -17.832973 5.808434 13.210345 20.418848 6.794224 -4.817263 -0.759117 -3.168793 0.655681 -9.218103 0.008019 -9.486483 -16.924376 10.695558 5.081138 0.917051 -0.988826 -2.423321 7.022950 
-0.848441 52.687630 -2.497376 2.109375 -0.703121 -13.408403 29.822811 -7.874106 -5.629282 -21.933596 8.173829 6.259767 51.063168 8.107644 2.471410 -32.773441 -4.169921 -10.429688 2.000000 -2.000000 0.000000 -87.841797 -5.634766 -4.101494 -44.780125 -2.087229 -1.791280 -24.996038 46.297897 -31.959473 -2.000000 2.000000 0.000000 79.726563 -7.646485 -44.923176 111.114777 -1.310981 -3.240650 5.249514 -66.279922 -14.530334 5.359300 13.718257 21.296860 7.148267 -4.819212 -0.816599 -2.974152 0.512773 -9.144906 -1.113703 -9.038180 -15.789252 11.234520 5.111825 0.486685 -0.644619 -2.684993 6.534048 
-1.040547 52.695507 -3.024912 2.275391 -0.722656 -14.463013 29.822811 -7.874106 -5.629282 -21.591799 7.812500 6.093750 51.063168 8.107644 2.471410 -32.216793 -3.876953 -10.713552 2.000000 -2.000000 0.000000 -87.294922 -8.085938 -2.686920 -45.308807 -2.197885 -1.843480 -27.576155 44.837311 -35.476288 -2.000000 2.000000 0.000000 79.804688 -10.468750 -45.763493 114.454140 -1.575008 -2.904129 5.992824 -67.956032 -11.627105 4.596244 14.321681 22.506868 7.503930 -4.812207 -0.825754 -3.200721 0.072088 -8.940763 -2.382752 -8.575607 -15.145757 11.742157 5.068124 0.992729 -0.495761 -2.635882 6.553486 
-1.255430 52.703392 -3.545166 2.812500 -0.722656 -15.869265 29.822811 -7.874106 -5.629282 -21.259764 7.441407 5.733686 51.063168 8.107644 2.471410 -31.669924 -3.730468 -10.869142 2.000000 -2.000000 0.000000 -87.324219 -11.054688 -1.123047 -45.494785 -2.238021 -1.860691 -30.538603 43.424332 -38.794735 -2.000000 2.000000 0.000000 80.214844 -13.476563 -47.724613 117.982513 -1.588299 -3.012458 7.058242 -69.128143 -8.426662 3.835173 14.811334 24.416729 8.027252 -4.800423 -0.895821 -2.894600 -0.177681 -8.906851 -3.827061 -7.954588 -13.817797 12.081747 5.055164 1.204936 -0.346802 -2.770014 6.115277 
-1.487178 52.719151 -4.062759 3.339844 -0.537109 -17.461054 29.822811 -7.874106 -5.629282 -20.917971 6.914063 5.517578 51.063168 8.107644 2.471410 -31.328127 -3.759766 -10.712893 2.000000 -2.000000 0.000000 -87.675781 -13.115233 0.779036 -45.484032 -2.088937 -1.820517 -34.688606 41.513634 -42.721268 -2.000000 2.000000 0.000000 80.283203 -16.552734 -48.860199 120.962967 -1.866773 -2.764865 10.530330 -71.016472 -7.814727 3.288911 15.476065 26.166039 8.385275 -4.789050 -0.894889 -2.949388 0.075948 -8.520852 -5.428468 -7.438313 -12.344384 12.254574 5.058041 1.063065 -0.152157 -2.568464 6.035817 
-1.756174 52.695507 -4.582297 3.847656 -0.537109 -19.394650 29.822811 -7.874106 -5.629282 -20.576172 6.552734 5.341797 51.063168 8.107644 2.471410 -31.171877 -3.935547 -10.439453 2.000000 -2.000000 0.000000 -88.203125 -15.312500 2.575546 -45.846832 -2.258657 -1.879041 -38.309769 39.478905 -46.264725 -2.000000 2.000000 0.000000 80.234375 -19.550783 -50.052097 123.763626 -1.967393 -3.053931 15.874391 -73.037552 -8.386892 2.701086 15.883364 28.411139 8.752807 -4.773098 -0.894416 -2.701730 0.041781 -8.380398 -6.929761 -6.547629 -9.650533 12.242833 5.096408 0.588478 0.093679 -2.961199 5.867195 
-2.014744 52.671879 -5.106600 4.570313 -0.537109 -21.337978 29.822811 -7.874106 -5.629282 -20.068361 6.015625 5.126954 51.063168 8.107644 2.471410 -31.005859 -4.287109 -9.864013 2.000000 -2.000000 0.000000 -89.306641 -17.246092 4.306641 -45.836121 -2.090076 -1.840008 -41.304981 37.780243 -49.870804 -2.000000 2.000000 0.000000 79.853516 -22.714842 -50.658070 125.877205 -2.173959 -2.528808 25.354315 -75.207184 -12.586201 2.294688 16.494810 30.705425 9.272336 -4.770322 -0.984294 -3.064375 -0.214975 -8.263193 -8.420869 -5.687336 -7.358483 12.242834 5.096406 0.588477 0.641121 -3.171665 5.990549 
-2.283916 52.648251 -5.617249 5.087891 -0.361328 -23.613344 29.822811 -7.874106 -5.629282 -19.726563 5.654297 4.931641 51.063168 8.107644 2.471410 -31.425783 -5.244140 -8.417970 2.000000 -2.000000 0.000000 -90.468750 -18.291014 4.863281 -45.670769 -2.267837 -1.868726 -42.478630 36.460072 -52.538517 -2.000000 2.000000 0.000000 79.033203 -26.132813 -49.740627 126.928070 -1.908334 -3.060295 36.498989 -76.502289 -19.656471 1.931883 17.273485 32.817528 9.441406 -4.761627 -0.987240 -2.736123 0.263541 -8.270509 -9.973118 -4.771145 -5.606253 12.254575 5.058037 1.063065 0.980364 -3.286212 5.951120 
